<mxfile host="app.diagrams.net" modified="2024-05-18T02:32:09.731Z" agent="Mozilla/5.0 (Windows NT 10.0; Win64; x64) AppleWebKit/537.36 (KHTML, like Gecko) Chrome/125.0.0.0 Safari/537.36" version="24.3.1" etag="M252Qz7_cOThbb8XhpGR" type="github">
  <diagram name="Page-1" id="fyQJrKO3HGvpboNa-rPu">
    <mxGraphModel>
      <root>
        <mxCell id="0" />
        <mxCell id="1" parent="0" />
      </root>
    </mxGraphModel>
  </diagram>
</mxfile>
